<?xml version="1.0" encoding="UTF-8"?>
<!DOCTYPE svg PUBLIC "-//W3C//DTD SVG 1.1//EN" "http://www.w3.org/Graphics/SVG/1.1/DTD/svg11.dtd">
<!-- Creator: CorelDRAW -->
<svg xmlns="http://www.w3.org/2000/svg" xml:space="preserve" width="91.44mm" height="91.44mm" version="1.1" style="shape-rendering:geometricPrecision; text-rendering:geometricPrecision; image-rendering:optimizeQuality; fill-rule:evenodd; clip-rule:evenodd"
viewBox="0 0 9144 9144"
 xmlns:xlink="http://www.w3.org/1999/xlink"
 xmlns:xodm="http://www.corel.com/coreldraw/odm/2003">
 <defs>
  <style type="text/css">
   <![CDATA[
    .fil0 {fill:#4F9C28}
    .fil1 {fill:#FEFEFE;fill-rule:nonzero}
   ]]>
  </style>
 </defs>
 <g id="Layer_x0020_1">
  <metadata id="CorelCorpID_0Corel-Layer"/>
  <g id="_3236060088288">
   <circle class="fil0" cx="4572" cy="4572" r="4572"/>
   <g>
    <path class="fil1" d="M4927.46 5374.73l693.47 693.79c-394.75,425.66 -958.8,691.94 -1585.3,691.94 -1194.22,0 -2162.28,-968.06 -2162.28,-2162.28 0,-1194.23 968.12,-2162.35 2162.28,-2162.35 636.98,0 1209.65,275.54 1605.36,713.52l-694.42 694.42c-216.84,-261.64 -544.62,-428.46 -910.94,-428.46 -653.35,0 -1182.8,529.45 -1182.8,1182.8 0,653.35 529.45,1182.48 1182.8,1182.48 355.84,0 674.93,-157.23 891.77,-405.86l0.06 0z"/>
    <path class="fil1" d="M6907.82 3408.27l0 2425.45c0,511.86 -414.87,926.67 -926.67,926.67l0 -2425.45c0,-154.11 37.7,-299.35 104.42,-426.87l0 -0.31c43.54,-84.62 100.41,-161.23 167.13,-227.94 167.7,-167.7 399.38,-271.55 655.19,-271.55l-0.07 0z"/>
    <path class="fil1" d="M6907.82 2093.32l0 574.45c0,408.78 -414.87,740.56 -926.67,740.56l0 -574.45c0,-204.39 103.78,-389.55 271.55,-523.54 167.7,-134.06 399.38,-216.96 655.19,-216.96l-0.07 -0.06z"/>
   </g>
  </g>
 </g>
</svg>
