<?xml version="1.0" encoding="UTF-8"?>
<!DOCTYPE svg PUBLIC "-//W3C//DTD SVG 1.1//EN" "http://www.w3.org/Graphics/SVG/1.1/DTD/svg11.dtd">
<!-- Creator: CorelDRAW -->
<svg xmlns="http://www.w3.org/2000/svg" xml:space="preserve" width="1080px" height="1080px" version="1.1" style="shape-rendering:geometricPrecision; text-rendering:geometricPrecision; image-rendering:optimizeQuality; fill-rule:evenodd; clip-rule:evenodd"
viewBox="0 0 1080 1080"
 xmlns:xlink="http://www.w3.org/1999/xlink"
 xmlns:xodm="http://www.corel.com/coreldraw/odm/2003">
 <defs>
  <style type="text/css">
   <![CDATA[
    .fil0 {fill:#FEFEFE;fill-rule:nonzero}
   ]]>
  </style>
 </defs>
 <g id="Layer_x0020_1">
  <metadata id="CorelCorpID_0Corel-Layer"/>
  <g id="_3236116194208">
   <g>
    <path class="fil0" d="M576.8 532.23l45.79 45.81c-26.06,28.11 -63.31,45.69 -104.68,45.69 -78.85,0 -142.77,-63.92 -142.77,-142.77 0,-78.86 63.92,-142.78 142.77,-142.78 42.06,0 79.88,18.19 106.01,47.11l-45.86 45.85c-14.31,-17.27 -35.96,-28.29 -60.15,-28.29 -43.14,0 -78.1,34.96 -78.1,78.1 0,43.14 34.96,78.08 78.1,78.08 23.5,0 44.57,-10.38 58.89,-26.8l0 0z"/>
    <path class="fil0" d="M707.57 402.39l0 160.15c0,33.8 -27.4,61.19 -61.19,61.19l0 -160.15c0,-10.18 2.49,-19.77 6.89,-28.19l0 -0.02c2.88,-5.59 6.63,-10.65 11.04,-15.05 11.07,-11.08 26.37,-17.93 43.26,-17.93l0 0z"/>
    <path class="fil0" d="M707.57 315.56l0 37.93c0,26.99 -27.4,48.9 -61.19,48.9l0 -37.93c0,-13.5 6.85,-25.72 17.93,-34.57 11.07,-8.85 26.37,-14.32 43.26,-14.32l0 -0.01z"/>
   </g>
   <g>
    <path class="fil0" d="M40.01 698.38c0,-6.44 1.39,-12.18 4.18,-17.22 2.78,-5.05 6.67,-8.98 11.65,-11.8 4.98,-2.81 10.63,-4.22 16.95,-4.22 7.74,0 14.36,2.04 19.87,6.13 5.51,4.08 9.19,9.65 11.05,16.71l-17.46 0c-1.3,-2.72 -3.14,-4.8 -5.52,-6.22 -2.39,-1.42 -5.09,-2.13 -8.13,-2.13 -4.89,0 -8.85,1.7 -11.88,5.1 -3.04,3.41 -4.55,7.96 -4.55,13.65 0,5.7 1.51,10.25 4.55,13.65 3.03,3.41 6.99,5.11 11.88,5.11 3.04,0 5.74,-0.71 8.13,-2.14 2.38,-1.42 4.22,-3.49 5.52,-6.22l17.46 0c-1.86,7.06 -5.54,12.62 -11.05,16.67 -5.51,4.05 -12.13,6.08 -19.87,6.08 -6.32,0 -11.97,-1.41 -16.95,-4.22 -4.98,-2.82 -8.87,-6.74 -11.65,-11.75 -2.79,-5.01 -4.18,-10.74 -4.18,-17.18z"/>
    <polygon id="_1" class="fil0" points="175.82,665.88 175.82,731.07 159.94,731.07 159.94,704.23 135.24,704.23 135.24,731.07 119.36,731.07 119.36,665.88 135.24,665.88 135.24,691.42 159.94,691.42 159.94,665.88 "/>
    <polygon id="_2" class="fil0" points="209.03,678.6 209.03,691.79 230.29,691.79 230.29,704.05 209.03,704.05 209.03,718.35 233.08,718.35 233.08,731.07 193.15,731.07 193.15,665.88 233.08,665.88 233.08,678.6 "/>
    <polygon id="_3" class="fil0" points="323.11,665.88 323.11,731.07 307.23,731.07 307.23,691.98 292.65,731.07 279.84,731.07 265.17,691.88 265.17,731.07 249.29,731.07 249.29,665.88 268.04,665.88 286.34,711.01 304.44,665.88 "/>
    <polygon id="_4" class="fil0" points="356.31,665.88 356.31,731.07 340.43,731.07 340.43,665.88 "/>
    <path id="_5" class="fil0" d="M397.32 731.72c-4.77,0 -9.04,-0.78 -12.82,-2.32 -3.77,-1.55 -6.79,-3.84 -9.05,-6.88 -2.26,-3.03 -3.45,-6.68 -3.57,-10.95l16.89 0c0.25,2.41 1.09,4.25 2.51,5.52 1.43,1.27 3.28,1.91 5.57,1.91 2.36,0 4.21,-0.55 5.57,-1.63 1.37,-1.08 2.05,-2.58 2.05,-4.5 0,-1.61 -0.54,-2.94 -1.63,-4 -1.08,-1.05 -2.41,-1.91 -3.99,-2.6 -1.58,-0.68 -3.82,-1.45 -6.73,-2.32 -4.21,-1.3 -7.65,-2.6 -10.31,-3.9 -2.66,-1.3 -4.95,-3.22 -6.87,-5.75 -1.92,-2.54 -2.88,-5.85 -2.88,-9.94 0,-6.07 2.2,-10.82 6.59,-14.25 4.4,-3.44 10.12,-5.16 17.18,-5.16 7.18,0 12.97,1.72 17.37,5.16 4.39,3.43 6.74,8.22 7.05,14.34l-17.17 0c-0.13,-2.1 -0.9,-3.76 -2.33,-4.96 -1.42,-1.21 -3.25,-1.81 -5.47,-1.81 -1.92,0 -3.47,0.51 -4.65,1.53 -1.17,1.02 -1.76,2.49 -1.76,4.41 0,2.1 0.99,3.74 2.97,4.92 1.98,1.18 5.08,2.44 9.29,3.81 4.21,1.42 7.62,2.78 10.26,4.08 2.63,1.3 4.9,3.19 6.82,5.67 1.92,2.47 2.88,5.66 2.88,9.56 0,3.72 -0.94,7.09 -2.83,10.12 -1.89,3.03 -4.63,5.45 -8.22,7.24 -3.59,1.8 -7.83,2.7 -12.72,2.7z"/>
    <polygon id="_6" class="fil0" points="483.64,665.88 483.64,678.6 466.37,678.6 466.37,731.07 450.49,731.07 450.49,678.6 433.22,678.6 433.22,665.88 "/>
    <polygon id="_7" class="fil0" points="539,665.88 539,731.07 523.12,731.07 523.12,665.88 "/>
    <polygon id="_8" class="fil0" points="614.73,731.07 598.85,731.07 572.29,690.86 572.29,731.07 556.42,731.07 556.42,665.88 572.29,665.88 598.85,706.27 598.85,665.88 614.73,665.88 "/>
    <path id="_9" class="fil0" d="M656.57 665.88c6.87,0 12.88,1.36 18.02,4.09 5.13,2.72 9.11,6.54 11.93,11.47 2.81,4.92 4.22,10.6 4.22,17.03 0,6.38 -1.41,12.04 -4.22,17 -2.82,4.95 -6.81,8.79 -11.98,11.51 -5.17,2.73 -11.16,4.09 -17.97,4.09l-24.42 0 0 -65.19 24.42 0zm-1.02 51.45c6,0 10.68,-1.65 14.02,-4.93 3.34,-3.28 5.02,-7.92 5.02,-13.93 0,-6 -1.68,-10.67 -5.02,-14.02 -3.34,-3.34 -8.02,-5.01 -14.02,-5.01l-7.52 0 0 37.89 7.52 0z"/>
    <polygon id="_10" class="fil0" points="721.44,665.88 721.44,731.07 705.56,731.07 705.56,665.88 "/>
    <path id="_11" class="fil0" d="M779.44 719.55l-24.33 0 -3.9 11.52 -16.62 0 23.58 -65.19 18.39 0 23.58 65.19 -16.8 0 -3.9 -11.52zm-4.09 -12.25l-8.08 -23.87 -7.98 23.87 16.06 0z"/>
    <polygon id="_12" class="fil0" points="854.67,718.81 875.47,718.81 875.47,731.07 838.79,731.07 838.79,665.88 854.67,665.88 "/>
    <polygon id="_13" class="fil0" points="935.88,665.88 935.88,678.6 918.61,678.6 918.61,731.07 902.73,731.07 902.73,678.6 885.46,678.6 885.46,665.88 "/>
    <path id="_14" class="fil0" d="M974.19 665.88c6.87,0 12.88,1.36 18.02,4.09 5.14,2.72 9.11,6.54 11.93,11.47 2.82,4.92 4.22,10.6 4.22,17.03 0,6.38 -1.4,12.04 -4.22,17 -2.82,4.95 -6.81,8.79 -11.98,11.51 -5.17,2.73 -11.16,4.09 -17.97,4.09l-24.42 0 0 -65.19 24.42 0zm-1.02 51.45c6.01,0 10.68,-1.65 14.02,-4.93 3.35,-3.28 5.02,-7.92 5.02,-13.93 0,-6 -1.67,-10.67 -5.02,-14.02 -3.34,-3.34 -8.01,-5.01 -14.02,-5.01l-7.52 0 0 37.89 7.52 0z"/>
    <path id="_15" class="fil0" d="M1030.61 731.81c-2.78,0 -5.06,-0.82 -6.82,-2.46 -1.77,-1.64 -2.65,-3.67 -2.65,-6.08 0,-2.48 0.88,-4.55 2.65,-6.22 1.76,-1.67 4.04,-2.51 6.82,-2.51 2.73,0 4.97,0.84 6.73,2.51 1.77,1.67 2.65,3.74 2.65,6.22 0,2.41 -0.88,4.44 -2.65,6.08 -1.76,1.64 -4,2.46 -6.73,2.46z"/>
    <polygon class="fil0" points="302.86,747.97 302.86,764.27 300.19,764.27 300.19,757.14 292.52,757.14 292.52,764.27 289.84,764.27 289.84,747.97 292.52,747.97 292.52,754.96 300.19,754.96 300.19,747.97 "/>
    <polygon id="_1_105" class="fil0" points="318.81,750.13 318.81,754.92 324.44,754.92 324.44,757.1 318.81,757.1 318.81,762.09 325.14,762.09 325.14,764.27 316.14,764.27 316.14,747.95 325.14,747.95 325.14,750.13 "/>
    <path id="_2_106" class="fil0" d="M348.01 760.94l-6.82 0 -1.17 3.33 -2.8 0 5.84 -16.32 3.1 0 5.84 16.32 -2.81 0 -1.18 -3.33zm-0.75 -2.18l-2.65 -7.57 -2.67 7.57 5.32 0z"/>
    <polygon id="_3_107" class="fil0" points="366.97,762.12 372.48,762.12 372.48,764.27 364.29,764.27 364.29,747.97 366.97,747.97 "/>
    <polygon id="_4_108" class="fil0" points="395,747.97 395,750.15 390.66,750.15 390.66,764.27 387.98,764.27 387.98,750.15 383.62,750.15 383.62,747.97 "/>
    <polygon id="_5_109" class="fil0" points="420.47,747.97 420.47,764.27 417.8,764.27 417.8,757.14 410.13,757.14 410.13,764.27 407.45,764.27 407.45,747.97 410.13,747.97 410.13,754.96 417.8,754.96 417.8,747.97 "/>
    <path id="_6_110" class="fil0" d="M453.24 759.51c-0.56,0 -1.07,-0.13 -1.53,-0.41 -0.47,-0.27 -0.83,-0.64 -1.11,-1.1 -0.27,-0.46 -0.41,-0.97 -0.41,-1.54 0,-0.86 0.3,-1.58 0.9,-2.18 0.59,-0.59 1.31,-0.89 2.15,-0.89 0.88,0 1.61,0.3 2.21,0.89 0.59,0.6 0.89,1.32 0.89,2.18 0,0.86 -0.3,1.59 -0.89,2.17 -0.6,0.59 -1.33,0.88 -2.21,0.88z"/>
    <path id="_7_111" class="fil0" d="M491.43 764.44c-1.09,0 -2.08,-0.19 -2.95,-0.58 -0.88,-0.38 -1.57,-0.92 -2.07,-1.63 -0.5,-0.7 -0.75,-1.52 -0.75,-2.46l2.86 0c0.07,0.7 0.34,1.28 0.84,1.74 0.49,0.45 1.18,0.68 2.07,0.68 0.92,0 1.64,-0.23 2.16,-0.67 0.51,-0.45 0.77,-1.02 0.77,-1.73 0,-0.54 -0.16,-0.99 -0.48,-1.33 -0.32,-0.35 -0.72,-0.61 -1.19,-0.8 -0.48,-0.19 -1.14,-0.39 -1.99,-0.61 -1.06,-0.28 -1.92,-0.57 -2.59,-0.86 -0.66,-0.29 -1.23,-0.74 -1.7,-1.35 -0.47,-0.61 -0.7,-1.42 -0.7,-2.43 0,-0.94 0.23,-1.76 0.7,-2.47 0.47,-0.7 1.13,-1.24 1.97,-1.62 0.85,-0.37 1.82,-0.56 2.93,-0.56 1.58,0 2.88,0.4 3.89,1.18 1,0.79 1.56,1.88 1.67,3.25l-2.95 0c-0.05,-0.59 -0.33,-1.1 -0.85,-1.52 -0.51,-0.42 -1.19,-0.63 -2.04,-0.63 -0.76,0 -1.39,0.19 -1.87,0.58 -0.49,0.39 -0.73,0.96 -0.73,1.69 0,0.5 0.15,0.91 0.46,1.23 0.3,0.32 0.69,0.58 1.16,0.77 0.47,0.18 1.11,0.39 1.92,0.61 1.08,0.29 1.96,0.59 2.64,0.89 0.68,0.29 1.26,0.75 1.74,1.37 0.47,0.62 0.71,1.44 0.71,2.47 0,0.83 -0.22,1.61 -0.67,2.35 -0.44,0.73 -1.09,1.32 -1.95,1.77 -0.85,0.45 -1.85,0.67 -3.01,0.67z"/>
    <path id="_8_112" class="fil0" d="M509.09 756.09c0,-1.6 0.37,-3.03 1.12,-4.3 0.74,-1.26 1.75,-2.25 3.02,-2.96 1.28,-0.71 2.67,-1.07 4.19,-1.07 1.74,0 3.28,0.43 4.63,1.28 1.36,0.85 2.34,2.06 2.95,3.62l-3.22 0c-0.42,-0.86 -1,-1.5 -1.75,-1.92 -0.76,-0.42 -1.62,-0.63 -2.61,-0.63 -1.08,0 -2.04,0.24 -2.88,0.72 -0.85,0.49 -1.51,1.18 -1.99,2.09 -0.47,0.91 -0.71,1.96 -0.71,3.17 0,1.2 0.24,2.26 0.71,3.16 0.48,0.91 1.14,1.61 1.99,2.1 0.84,0.5 1.8,0.74 2.88,0.74 0.99,0 1.85,-0.21 2.61,-0.63 0.75,-0.42 1.33,-1.06 1.75,-1.92l3.22 0c-0.61,1.56 -1.59,2.76 -2.95,3.61 -1.35,0.84 -2.89,1.26 -4.63,1.26 -1.53,0 -2.93,-0.35 -4.2,-1.06 -1.26,-0.71 -2.27,-1.7 -3.01,-2.97 -0.75,-1.27 -1.12,-2.7 -1.12,-4.29z"/>
    <polygon id="_9_113" class="fil0" points="540.55,747.97 540.55,764.27 537.88,764.27 537.88,747.97 "/>
    <polygon id="_10_114" class="fil0" points="556.5,750.13 556.5,754.92 562.13,754.92 562.13,757.1 556.5,757.1 556.5,762.09 562.83,762.09 562.83,764.27 553.83,764.27 553.83,747.95 562.83,747.95 562.83,750.13 "/>
    <polygon id="_11_115" class="fil0" points="589.27,764.27 586.6,764.27 578.55,752.1 578.55,764.27 575.88,764.27 575.88,747.95 578.55,747.95 586.6,760.1 586.6,747.95 589.27,747.95 "/>
    <path id="_12_116" class="fil0" d="M601.66 756.09c0,-1.6 0.37,-3.03 1.11,-4.3 0.74,-1.26 1.75,-2.25 3.03,-2.96 1.27,-0.71 2.67,-1.07 4.18,-1.07 1.74,0 3.28,0.43 4.64,1.28 1.35,0.85 2.33,2.06 2.94,3.62l-3.21 0c-0.43,-0.86 -1.01,-1.5 -1.76,-1.92 -0.75,-0.42 -1.62,-0.63 -2.61,-0.63 -1.08,0 -2.04,0.24 -2.88,0.72 -0.85,0.49 -1.51,1.18 -1.98,2.09 -0.48,0.91 -0.72,1.96 -0.72,3.17 0,1.2 0.24,2.26 0.72,3.16 0.47,0.91 1.13,1.61 1.98,2.1 0.84,0.5 1.8,0.74 2.88,0.74 0.99,0 1.86,-0.21 2.61,-0.63 0.75,-0.42 1.33,-1.06 1.76,-1.92l3.21 0c-0.61,1.56 -1.59,2.76 -2.94,3.61 -1.36,0.84 -2.9,1.26 -4.64,1.26 -1.53,0 -2.93,-0.35 -4.2,-1.06 -1.26,-0.71 -2.27,-1.7 -3.01,-2.97 -0.74,-1.27 -1.11,-2.7 -1.11,-4.29z"/>
    <polygon id="_13_117" class="fil0" points="633.11,750.13 633.11,754.92 638.74,754.92 638.74,757.1 633.11,757.1 633.11,762.09 639.45,762.09 639.45,764.27 630.44,764.27 630.44,747.95 639.45,747.95 639.45,750.13 "/>
    <path id="_14_118" class="fil0" d="M671.98 759.51c-0.56,0 -1.07,-0.13 -1.54,-0.41 -0.46,-0.27 -0.82,-0.64 -1.1,-1.1 -0.27,-0.46 -0.41,-0.97 -0.41,-1.54 0,-0.86 0.3,-1.58 0.89,-2.18 0.6,-0.59 1.32,-0.89 2.16,-0.89 0.88,0 1.61,0.3 2.21,0.89 0.59,0.6 0.89,1.32 0.89,2.18 0,0.86 -0.3,1.59 -0.89,2.17 -0.6,0.59 -1.33,0.88 -2.21,0.88z"/>
    <path id="_15_119" class="fil0" d="M703.91 756.09c0,-1.6 0.37,-3.03 1.11,-4.3 0.74,-1.26 1.75,-2.25 3.03,-2.96 1.27,-0.71 2.67,-1.07 4.18,-1.07 1.74,0 3.28,0.43 4.64,1.28 1.35,0.85 2.33,2.06 2.94,3.62l-3.21 0c-0.43,-0.86 -1.01,-1.5 -1.76,-1.92 -0.75,-0.42 -1.62,-0.63 -2.61,-0.63 -1.07,0 -2.04,0.24 -2.88,0.72 -0.85,0.49 -1.51,1.18 -1.98,2.09 -0.48,0.91 -0.72,1.96 -0.72,3.17 0,1.2 0.24,2.26 0.72,3.16 0.47,0.91 1.13,1.61 1.98,2.1 0.84,0.5 1.81,0.74 2.88,0.74 0.99,0 1.86,-0.21 2.61,-0.63 0.75,-0.42 1.33,-1.06 1.76,-1.92l3.21 0c-0.61,1.56 -1.59,2.76 -2.94,3.61 -1.36,0.84 -2.9,1.26 -4.64,1.26 -1.53,0 -2.93,-0.35 -4.2,-1.06 -1.26,-0.71 -2.27,-1.7 -3.01,-2.97 -0.74,-1.27 -1.11,-2.7 -1.11,-4.29z"/>
    <path id="_16" class="fil0" d="M742.52 760.94l-6.83 0 -1.17 3.33 -2.79 0 5.84 -16.32 3.09 0 5.84 16.32 -2.81 0 -1.17 -3.33zm-0.75 -2.18l-2.65 -7.57 -2.68 7.57 5.33 0z"/>
    <path id="_17" class="fil0" d="M767.26 764.27l-3.75 -6.52 -2.04 0 0 6.52 -2.68 0 0 -16.3 5.64 0c1.25,0 2.31,0.22 3.17,0.66 0.87,0.44 1.52,1.02 1.95,1.76 0.43,0.73 0.64,1.55 0.64,2.46 0,1.06 -0.3,2.03 -0.92,2.9 -0.62,0.87 -1.57,1.46 -2.85,1.77l4.03 6.75 -3.19 0zm-5.79 -8.65l2.96 0c1,0 1.75,-0.25 2.26,-0.75 0.51,-0.5 0.76,-1.18 0.76,-2.02 0,-0.84 -0.25,-1.5 -0.75,-1.98 -0.5,-0.48 -1.26,-0.72 -2.27,-0.72l-2.96 0 0 5.47z"/>
    <polygon id="_18" class="fil0" points="786.05,750.13 786.05,754.92 791.68,754.92 791.68,757.1 786.05,757.1 786.05,762.09 792.39,762.09 792.39,764.27 783.38,764.27 783.38,747.95 792.39,747.95 792.39,750.13 "/>
   </g>
  </g>
 </g>
</svg>
