<?xml version="1.0" encoding="UTF-8"?>
<!DOCTYPE svg PUBLIC "-//W3C//DTD SVG 1.1//EN" "http://www.w3.org/Graphics/SVG/1.1/DTD/svg11.dtd">
<!-- Creator: CorelDRAW -->
<svg xmlns="http://www.w3.org/2000/svg" xml:space="preserve" width="1080px" height="1080px" version="1.1" style="shape-rendering:geometricPrecision; text-rendering:geometricPrecision; image-rendering:optimizeQuality; fill-rule:evenodd; clip-rule:evenodd"
viewBox="0 0 1080 1080"
 xmlns:xlink="http://www.w3.org/1999/xlink"
 xmlns:xodm="http://www.corel.com/coreldraw/odm/2003">
 <defs>
  <style type="text/css">
   <![CDATA[
    .str0 {stroke:#4F9C28;stroke-width:5.91;stroke-miterlimit:22.9256}
    .fil2 {fill:none}
    .fil0 {fill:#FEFEFE;fill-rule:nonzero}
    .fil1 {fill:#4F9C28;fill-rule:nonzero}
   ]]>
  </style>
 </defs>
 <g id="Layer_x0020_1">
  <metadata id="CorelCorpID_0Corel-Layer"/>
  <g id="_3236051865104">
   <g>
    <path class="fil0" d="M227.91 540.04c0,-5.23 1.13,-9.89 3.39,-13.99 2.26,-4.1 5.42,-7.29 9.47,-9.58 4.04,-2.29 8.63,-3.43 13.76,-3.43 6.28,0 11.66,1.66 16.14,4.98 4.47,3.32 7.46,7.84 8.97,13.57l-14.18 0c-1.05,-2.21 -2.55,-3.89 -4.48,-5.05 -1.94,-1.16 -4.14,-1.73 -6.6,-1.73 -3.97,0 -7.19,1.38 -9.66,4.14 -2.46,2.77 -3.69,6.46 -3.69,11.09 0,4.62 1.23,8.32 3.69,11.08 2.47,2.77 5.69,4.15 9.66,4.15 2.46,0 4.66,-0.58 6.6,-1.73 1.93,-1.16 3.43,-2.85 4.48,-5.06l14.18 0c-1.51,5.73 -4.5,10.25 -8.97,13.54 -4.48,3.29 -9.86,4.94 -16.14,4.94 -5.13,0 -9.72,-1.15 -13.76,-3.43 -4.05,-2.29 -7.21,-5.47 -9.47,-9.54 -2.26,-4.07 -3.39,-8.72 -3.39,-13.95z"/>
    <polygon id="_1" class="fil0" points="338.2,513.64 338.2,566.58 325.31,566.58 325.31,544.79 305.25,544.79 305.25,566.58 292.35,566.58 292.35,513.64 305.25,513.64 305.25,534.38 325.31,534.38 325.31,513.64 "/>
    <polygon id="_2" class="fil0" points="365.17,523.98 365.17,534.68 382.43,534.68 382.43,544.64 365.17,544.64 365.17,556.25 384.7,556.25 384.7,566.58 352.27,566.58 352.27,513.64 384.7,513.64 384.7,523.98 "/>
    <polygon id="_3" class="fil0" points="457.81,513.64 457.81,566.58 444.92,566.58 444.92,534.83 433.08,566.58 422.67,566.58 410.76,534.76 410.76,566.58 397.86,566.58 397.86,513.64 413.1,513.64 427.95,550.29 442.66,513.64 "/>
    <polygon id="_4" class="fil0" points="484.78,513.64 484.78,566.58 471.88,566.58 471.88,513.64 "/>
    <path id="_5" class="fil0" d="M518.08 567.11c-3.87,0 -7.34,-0.63 -10.41,-1.89 -3.06,-1.25 -5.51,-3.11 -7.35,-5.58 -1.83,-2.46 -2.8,-5.43 -2.9,-8.89l13.72 0c0.2,1.96 0.88,3.45 2.04,4.48 1.15,1.03 2.66,1.55 4.52,1.55 1.91,0 3.42,-0.44 4.53,-1.32 1.1,-0.88 1.66,-2.1 1.66,-3.66 0,-1.31 -0.44,-2.39 -1.32,-3.24 -0.88,-0.86 -1.96,-1.56 -3.25,-2.11 -1.28,-0.56 -3.1,-1.18 -5.46,-1.89 -3.42,-1.05 -6.21,-2.11 -8.37,-3.17 -2.16,-1.05 -4.02,-2.61 -5.58,-4.67 -1.56,-2.06 -2.34,-4.75 -2.34,-8.07 0,-4.93 1.78,-8.78 5.35,-11.57 3.57,-2.8 8.22,-4.19 13.95,-4.19 5.84,0 10.54,1.39 14.11,4.19 3.56,2.79 5.47,6.67 5.73,11.65l-13.96 0c-0.1,-1.71 -0.72,-3.06 -1.88,-4.04 -1.16,-0.98 -2.64,-1.47 -4.45,-1.47 -1.56,0 -2.81,0.42 -3.77,1.25 -0.96,0.83 -1.43,2.02 -1.43,3.58 0,1.71 0.8,3.04 2.41,3.99 1.61,0.96 4.12,1.99 7.54,3.1 3.42,1.15 6.2,2.26 8.33,3.31 2.14,1.06 3.99,2.59 5.55,4.6 1.56,2.01 2.33,4.6 2.33,7.77 0,3.02 -0.76,5.76 -2.3,8.22 -1.53,2.46 -3.75,4.42 -6.67,5.88 -2.92,1.46 -6.36,2.19 -10.33,2.19z"/>
    <polygon id="_6" class="fil0" points="588.18,513.64 588.18,523.98 574.15,523.98 574.15,566.58 561.26,566.58 561.26,523.98 547.23,523.98 547.23,513.64 "/>
    <polygon id="_7" class="fil0" points="633.14,513.64 633.14,566.58 620.24,566.58 620.24,513.64 "/>
    <polygon id="_8" class="fil0" points="694.64,566.58 681.75,566.58 660.18,533.93 660.18,566.58 647.28,566.58 647.28,513.64 660.18,513.64 681.75,546.45 681.75,513.64 694.64,513.64 "/>
    <path id="_9" class="fil0" d="M728.62 513.64c5.58,0 10.46,1.11 14.63,3.32 4.17,2.21 7.4,5.32 9.69,9.32 2.29,3.99 3.43,8.6 3.43,13.83 0,5.18 -1.14,9.78 -3.43,13.8 -2.29,4.02 -5.53,7.14 -9.73,9.35 -4.2,2.22 -9.06,3.32 -14.59,3.32l-19.83 0 0 -52.94 19.83 0zm-0.83 41.78c4.88,0 8.67,-1.33 11.39,-4 2.71,-2.66 4.07,-6.43 4.07,-11.31 0,-4.87 -1.36,-8.67 -4.07,-11.38 -2.72,-2.72 -6.51,-4.08 -11.39,-4.08l-6.11 0 0 30.77 6.11 0z"/>
    <polygon id="_10" class="fil0" points="781.3,513.64 781.3,566.58 768.4,566.58 768.4,513.64 "/>
    <path id="_11" class="fil0" d="M828.4 557.23l-19.76 0 -3.17 9.35 -13.49 0 19.15 -52.94 14.93 0 19.15 52.94 -13.64 0 -3.17 -9.35zm-3.32 -9.95l-6.56 -19.38 -6.49 19.38 13.05 0z"/>
    <polygon id="_12" class="fil0" points="889.49,556.63 906.39,556.63 906.39,566.58 876.6,566.58 876.6,513.64 889.49,513.64 "/>
    <polygon id="_13" class="fil0" points="955.45,513.64 955.45,523.98 941.42,523.98 941.42,566.58 928.53,566.58 928.53,523.98 914.5,523.98 914.5,513.64 "/>
    <path id="_14" class="fil0" d="M986.56 513.64c5.58,0 10.46,1.11 14.63,3.32 4.17,2.21 7.4,5.32 9.69,9.32 2.29,3.99 3.43,8.6 3.43,13.83 0,5.18 -1.14,9.78 -3.43,13.8 -2.29,4.02 -5.53,7.14 -9.73,9.35 -4.2,2.22 -9.06,3.32 -14.59,3.32l-19.83 0 0 -52.94 19.83 0zm-0.83 41.78c4.88,0 8.67,-1.33 11.39,-4 2.71,-2.66 4.07,-6.43 4.07,-11.31 0,-4.87 -1.36,-8.67 -4.07,-11.38 -2.72,-2.72 -6.51,-4.08 -11.39,-4.08l-6.11 0 0 30.77 6.11 0z"/>
    <path id="_15" class="fil0" d="M1032.38 567.18c-2.26,0 -4.11,-0.66 -5.55,-1.99 -1.43,-1.34 -2.14,-2.98 -2.14,-4.94 0,-2.01 0.71,-3.7 2.14,-5.06 1.44,-1.35 3.29,-2.03 5.55,-2.03 2.21,0 4.03,0.68 5.47,2.03 1.43,1.36 2.14,3.05 2.14,5.06 0,1.96 -0.71,3.6 -2.14,4.94 -1.44,1.33 -3.26,1.99 -5.47,1.99z"/>
    <polygon class="fil0" points="440.47,580.83 440.47,594.07 438.3,594.07 438.3,588.28 432.07,588.28 432.07,594.07 429.9,594.07 429.9,580.83 432.07,580.83 432.07,586.51 438.3,586.51 438.3,580.83 "/>
    <polygon id="_1_120" class="fil0" points="453.43,582.59 453.43,586.47 458,586.47 458,588.24 453.43,588.24 453.43,592.3 458.57,592.3 458.57,594.07 451.25,594.07 451.25,580.82 458.57,580.82 458.57,582.59 "/>
    <path id="_2_121" class="fil0" d="M477.14 591.37l-5.54 0 -0.95 2.7 -2.27 0 4.74 -13.25 2.52 0 4.74 13.25 -2.29 0 -0.95 -2.7zm-0.61 -1.77l-2.15 -6.16 -2.17 6.16 4.32 0z"/>
    <polygon id="_3_122" class="fil0" points="492.53,592.32 497.01,592.32 497.01,594.07 490.36,594.07 490.36,580.83 492.53,580.83 "/>
    <polygon id="_4_123" class="fil0" points="515.29,580.83 515.29,582.61 511.77,582.61 511.77,594.07 509.6,594.07 509.6,582.61 506.06,582.61 506.06,580.83 "/>
    <polygon id="_5_124" class="fil0" points="535.98,580.83 535.98,594.07 533.81,594.07 533.81,588.28 527.58,588.28 527.58,594.07 525.41,594.07 525.41,580.83 527.58,580.83 527.58,586.51 533.81,586.51 533.81,580.83 "/>
    <path id="_6_125" class="fil0" d="M562.59 590.21c-0.46,0 -0.87,-0.11 -1.25,-0.34 -0.37,-0.22 -0.67,-0.52 -0.89,-0.89 -0.22,-0.38 -0.33,-0.79 -0.33,-1.25 0,-0.7 0.24,-1.29 0.72,-1.77 0.48,-0.48 1.07,-0.72 1.75,-0.72 0.71,0 1.31,0.24 1.79,0.72 0.48,0.48 0.73,1.07 0.73,1.77 0,0.7 -0.25,1.29 -0.73,1.76 -0.48,0.48 -1.08,0.72 -1.79,0.72z"/>
    <path id="_7_126" class="fil0" d="M593.6 594.21c-0.89,0 -1.69,-0.16 -2.4,-0.47 -0.71,-0.31 -1.27,-0.75 -1.67,-1.32 -0.41,-0.58 -0.61,-1.24 -0.61,-2l2.32 0c0.05,0.57 0.28,1.04 0.68,1.41 0.4,0.36 0.96,0.55 1.68,0.55 0.75,0 1.34,-0.18 1.75,-0.54 0.42,-0.37 0.63,-0.83 0.63,-1.4 0,-0.45 -0.13,-0.81 -0.39,-1.09 -0.26,-0.28 -0.58,-0.5 -0.97,-0.65 -0.39,-0.15 -0.92,-0.32 -1.61,-0.49 -0.86,-0.23 -1.56,-0.46 -2.1,-0.7 -0.54,-0.23 -1,-0.6 -1.38,-1.09 -0.39,-0.5 -0.58,-1.16 -0.58,-1.99 0,-0.76 0.19,-1.42 0.58,-2 0.38,-0.57 0.91,-1.01 1.6,-1.31 0.68,-0.3 1.48,-0.46 2.38,-0.46 1.28,0 2.33,0.32 3.15,0.96 0.82,0.65 1.27,1.53 1.36,2.64l-2.4 0c-0.04,-0.48 -0.27,-0.89 -0.68,-1.23 -0.42,-0.35 -0.98,-0.52 -1.66,-0.52 -0.62,0 -1.13,0.16 -1.53,0.48 -0.39,0.31 -0.59,0.77 -0.59,1.37 0,0.41 0.13,0.74 0.38,1 0.24,0.26 0.56,0.47 0.94,0.62 0.38,0.15 0.9,0.31 1.56,0.49 0.88,0.24 1.59,0.49 2.14,0.73 0.56,0.24 1.03,0.61 1.41,1.11 0.39,0.5 0.58,1.17 0.58,2.01 0,0.67 -0.18,1.31 -0.54,1.91 -0.36,0.59 -0.89,1.07 -1.58,1.43 -0.69,0.37 -1.51,0.55 -2.45,0.55z"/>
    <path id="_8_127" class="fil0" d="M607.95 587.42c0,-1.29 0.3,-2.45 0.9,-3.48 0.6,-1.03 1.42,-1.83 2.46,-2.41 1.03,-0.58 2.17,-0.87 3.4,-0.87 1.41,0 2.66,0.35 3.76,1.04 1.1,0.69 1.89,1.67 2.39,2.94l-2.61 0c-0.34,-0.69 -0.82,-1.22 -1.43,-1.56 -0.61,-0.34 -1.31,-0.51 -2.11,-0.51 -0.88,0 -1.66,0.19 -2.35,0.59 -0.68,0.39 -1.22,0.96 -1.6,1.69 -0.39,0.74 -0.59,1.6 -0.59,2.57 0,0.98 0.2,1.84 0.59,2.58 0.38,0.73 0.92,1.3 1.6,1.7 0.69,0.4 1.47,0.6 2.35,0.6 0.8,0 1.5,-0.17 2.11,-0.51 0.61,-0.35 1.09,-0.87 1.43,-1.56l2.61 0c-0.5,1.26 -1.29,2.24 -2.39,2.93 -1.1,0.68 -2.35,1.03 -3.76,1.03 -1.25,0 -2.38,-0.29 -3.41,-0.87 -1.03,-0.58 -1.85,-1.38 -2.45,-2.41 -0.6,-1.03 -0.9,-2.19 -0.9,-3.49z"/>
    <polygon id="_9_128" class="fil0" points="633.49,580.83 633.49,594.07 631.32,594.07 631.32,580.83 "/>
    <polygon id="_10_129" class="fil0" points="646.44,582.59 646.44,586.47 651.01,586.47 651.01,588.24 646.44,588.24 646.44,592.3 651.59,592.3 651.59,594.07 644.27,594.07 644.27,580.82 651.59,580.82 651.59,582.59 "/>
    <polygon id="_11_130" class="fil0" points="673.05,594.07 670.88,594.07 664.35,584.19 664.35,594.07 662.18,594.07 662.18,580.82 664.35,580.82 670.88,590.68 670.88,580.82 673.05,580.82 "/>
    <path id="_12_131" class="fil0" d="M683.11 587.42c0,-1.29 0.3,-2.45 0.91,-3.48 0.6,-1.03 1.42,-1.83 2.45,-2.41 1.04,-0.58 2.17,-0.87 3.4,-0.87 1.41,0 2.67,0.35 3.76,1.04 1.1,0.69 1.9,1.67 2.4,2.94l-2.61 0c-0.35,-0.69 -0.82,-1.22 -1.43,-1.56 -0.61,-0.34 -1.32,-0.51 -2.12,-0.51 -0.87,0 -1.65,0.19 -2.34,0.59 -0.69,0.39 -1.22,0.96 -1.61,1.69 -0.39,0.74 -0.58,1.6 -0.58,2.57 0,0.98 0.19,1.84 0.58,2.58 0.39,0.73 0.92,1.3 1.61,1.7 0.69,0.4 1.47,0.6 2.34,0.6 0.8,0 1.51,-0.17 2.12,-0.51 0.61,-0.35 1.08,-0.87 1.43,-1.56l2.61 0c-0.5,1.26 -1.3,2.24 -2.4,2.93 -1.09,0.68 -2.35,1.03 -3.76,1.03 -1.24,0 -2.38,-0.29 -3.41,-0.87 -1.03,-0.58 -1.84,-1.38 -2.44,-2.41 -0.61,-1.03 -0.91,-2.19 -0.91,-3.49z"/>
    <polygon id="_13_132" class="fil0" points="708.65,582.59 708.65,586.47 713.23,586.47 713.23,588.24 708.65,588.24 708.65,592.3 713.8,592.3 713.8,594.07 706.48,594.07 706.48,580.82 713.8,580.82 713.8,582.59 "/>
    <path id="_14_133" class="fil0" d="M740.22 590.21c-0.46,0 -0.88,-0.11 -1.25,-0.34 -0.37,-0.22 -0.67,-0.52 -0.9,-0.89 -0.22,-0.38 -0.33,-0.79 -0.33,-1.25 0,-0.7 0.24,-1.29 0.73,-1.77 0.48,-0.48 1.06,-0.72 1.75,-0.72 0.71,0 1.31,0.24 1.79,0.72 0.48,0.48 0.72,1.07 0.72,1.77 0,0.7 -0.24,1.29 -0.72,1.76 -0.48,0.48 -1.08,0.72 -1.79,0.72z"/>
    <path id="_15_134" class="fil0" d="M766.14 587.42c0,-1.29 0.3,-2.45 0.91,-3.48 0.6,-1.03 1.42,-1.83 2.45,-2.41 1.04,-0.58 2.17,-0.87 3.4,-0.87 1.41,0 2.67,0.35 3.77,1.04 1.1,0.69 1.89,1.67 2.39,2.94l-2.61 0c-0.34,-0.69 -0.82,-1.22 -1.43,-1.56 -0.61,-0.34 -1.31,-0.51 -2.12,-0.51 -0.87,0 -1.65,0.19 -2.34,0.59 -0.68,0.39 -1.22,0.96 -1.61,1.69 -0.38,0.74 -0.58,1.6 -0.58,2.57 0,0.98 0.2,1.84 0.58,2.58 0.39,0.73 0.93,1.3 1.61,1.7 0.69,0.4 1.47,0.6 2.34,0.6 0.81,0 1.51,-0.17 2.12,-0.51 0.61,-0.35 1.09,-0.87 1.43,-1.56l2.61 0c-0.5,1.26 -1.29,2.24 -2.39,2.93 -1.1,0.68 -2.36,1.03 -3.77,1.03 -1.24,0 -2.38,-0.29 -3.41,-0.87 -1.02,-0.58 -1.84,-1.38 -2.44,-2.41 -0.61,-1.03 -0.91,-2.19 -0.91,-3.49z"/>
    <path id="_16" class="fil0" d="M797.5 591.37l-5.55 0 -0.95 2.7 -2.27 0 4.75 -13.25 2.51 0 4.74 13.25 -2.28 0 -0.95 -2.7zm-0.61 -1.77l-2.16 -6.16 -2.17 6.16 4.33 0z"/>
    <path id="_17" class="fil0" d="M817.59 594.07l-3.05 -5.29 -1.65 0 0 5.29 -2.17 0 0 -13.24 4.57 0c1.01,0 1.87,0.18 2.58,0.54 0.7,0.35 1.23,0.83 1.58,1.43 0.35,0.59 0.52,1.26 0.52,2 0,0.86 -0.25,1.64 -0.75,2.35 -0.5,0.7 -1.27,1.18 -2.31,1.44l3.27 5.48 -2.59 0zm-4.7 -7.03l2.4 0c0.81,0 1.42,-0.2 1.84,-0.6 0.41,-0.41 0.62,-0.96 0.62,-1.64 0,-0.69 -0.21,-1.23 -0.61,-1.61 -0.41,-0.39 -1.03,-0.58 -1.85,-0.58l-2.4 0 0 4.43z"/>
    <polygon id="_18" class="fil0" points="832.85,582.59 832.85,586.47 837.42,586.47 837.42,588.24 832.85,588.24 832.85,592.3 837.99,592.3 837.99,594.07 830.68,594.07 830.68,580.82 837.99,580.82 837.99,582.59 "/>
   </g>
   <g>
    <path class="fil0" d="M119.61 564.7l18.07 18.09c-10.29,11.09 -24.99,18.03 -41.32,18.03 -31.12,0 -56.35,-25.23 -56.35,-56.36 0,-31.12 25.23,-56.35 56.35,-56.35 16.6,0 31.53,7.18 41.84,18.59l-18.1 18.1c-5.65,-6.82 -14.19,-11.17 -23.74,-11.17 -17.03,0 -30.83,13.8 -30.83,30.83 0,17.03 13.8,30.82 30.83,30.82 9.28,0 17.59,-4.1 23.24,-10.58l0.01 0z"/>
    <path class="fil0" d="M171.22 513.45l0 63.22c0,13.34 -10.81,24.15 -24.15,24.15l0 -63.22c0,-4.01 0.98,-7.8 2.72,-11.12l0 -0.01c1.13,-2.21 2.62,-4.2 4.36,-5.94 4.37,-4.37 10.41,-7.08 17.07,-7.08l0 0z"/>
    <path class="fil1" d="M171.22 479.18l0 14.97c0,10.66 -10.81,19.3 -24.15,19.3l0 -14.97c0,-5.33 2.7,-10.15 7.08,-13.64 4.37,-3.5 10.41,-5.66 17.07,-5.66l0 0z"/>
   </g>
   <line class="fil2 str0" x1="199.57" y1="494.44" x2="199.57" y2= "585.56" />
  </g>
 </g>
</svg>
